<svg xmlns="http://www.w3.org/2000/svg" fill="none" viewBox="0 0 16 16"><path fill="currentColor" fill-rule="evenodd" d="M2.519 3.933L.793 2.207A1 1 0 012.207.793l13 13a1 1 0 01-1.414 1.414l-2.041-2.041A8.634 8.634 0 018 14c-5.143 0-8-4.2-8-6 0-.994.872-2.72 2.519-4.067zm1.423 1.423c-.174.134-.34.276-.501.427C2.546 6.623 2 7.638 2 8c0 .362.546 1.377 1.44 2.217C4.634 11.337 6.19 12 8 12c.792 0 1.536-.127 2.222-.364l-1.464-1.464a2.3 2.3 0 01-2.93-2.93L3.942 5.356zM14 8c0 .276-.318.931-.865 1.6l1.42 1.42C15.505 9.915 16 8.75 16 8c0-1.8-2.857-6-8-6-.785 0-1.517.098-2.194.27l1.743 1.744C7.698 4.004 7.848 4 8 4c1.81 0 3.367.663 4.56 1.783C13.453 6.623 14 7.638 14 8z" clip-rule="evenodd"/></svg>
